<svg xmlns="http://www.w3.org/2000/svg" width="1600" height="640" viewBox="0 0 1600 640" role="img" aria-labelledby="title desc">
<title id="title">KidResume mathematical editorial hero</title><desc id="desc">A coordinate grid, contour field and evidence-to-resume vector equation</desc>
<defs>
  <pattern id="grid" width="40" height="40" patternUnits="userSpaceOnUse"><path d="M40 0H0V40" fill="none" stroke="#111" stroke-opacity=".10" stroke-width="1"/></pattern>
  <marker id="arrow" markerWidth="10" markerHeight="10" refX="8" refY="3" orient="auto"><path d="M0 0L9 3L0 6Z" fill="#111"/></marker>
  <style>text{font-family:Arial,Helvetica,sans-serif;fill:#111} .mono{font-family:'Courier New',monospace} .label{font-size:18px;font-weight:700;letter-spacing:2px} .small{font-size:16px} .contour{fill:none;stroke:#111;stroke-width:1.5} .vector{fill:none;stroke:#111;stroke-width:2;marker-end:url(#arrow)}</style>
</defs><rect width="1600" height="640" fill="#f8f8f5"/><rect width="1600" height="640" fill="url(#grid)"/><rect x="0" y="0" width="26" height="640" fill="#d0f000"/>
<text x="80" y="78" class="label">KIDRESUME / SYSTEM 01</text>
<text x="80" y="205" font-size="92" font-weight="700">TRUTH,</text>
<text x="80" y="300" font-size="92" font-weight="700">BY DESIGN.</text>
<text x="84" y="362" class="mono" font-size="24">CV = Σ(verified evidence × clear language) + controlled design</text>
<path d="M84 405H850" stroke="#111" stroke-width="3" marker-end="url(#arrow)"/>
<text x="84" y="451" class="small">INPUT VECTOR</text><text x="350" y="451" class="small">FACTUALITY GATE</text><text x="650" y="451" class="small">OWNED OUTPUT</text>
<text x="84" y="535" class="mono" font-size="17">v₀ = [school, subjects, activities, tools, portrait]</text>
<text x="84" y="568" class="mono" font-size="17">T(v₀) → [PDF, PNG, JSON]  where unsupported claims = 0</text>
<path class="contour" opacity="0.25" d="M 1560.0 326.0 L 1563.5 335.0 L 1566.3 344.1 L 1568.5 353.4 L 1569.9 362.8 L 1570.3 372.3 L 1569.8 381.7 L 1568.2 391.0 L 1565.6 400.1 L 1562.0 408.9 L 1557.3 417.5 L 1551.6 425.6 L 1545.1 433.2 L 1537.7 440.4 L 1529.7 447.0 L 1521.1 453.1 L 1512.0 458.7 L 1502.6 463.8 L 1493.1 468.4 L 1483.5 472.7 L 1473.9 476.7 L 1464.5 480.4 L 1455.3 484.0 L 1446.5 487.5 L 1437.9 491.1 L 1429.7 494.8 L 1421.9 498.6 L 1414.4 502.7 L 1407.1 507.2 L 1400.1 511.9 L 1393.3 517.0 L 1386.5 522.4 L 1379.6 528.0 L 1372.7 534.0 L 1365.6 540.1 L 1358.3 546.2 L 1350.6 552.4 L 1342.5 558.5 L 1334.1 564.3 L 1325.3 569.7 L 1316.0 574.7 L 1306.4 579.1 L 1296.4 582.8 L 1286.1 585.8 L 1275.6 588.0 L 1265.0 589.4 L 1254.3 589.8 L 1243.6 589.4 L 1233.0 588.1 L 1222.5 586.0 L 1212.3 583.1 L 1202.3 579.6 L 1192.7 575.4 L 1183.4 570.7 L 1174.4 565.6 L 1165.8 560.2 L 1157.6 554.6 L 1149.6 548.9 L 1141.8 543.1 L 1134.2 537.4 L 1126.8 531.8 L 1119.4 526.4 L 1111.9 521.1 L 1104.5 515.9 L 1096.9 511.0 L 1089.2 506.1 L 1081.3 501.4 L 1073.2 496.7 L 1065.1 492.0 L 1056.8 487.2 L 1048.5 482.2 L 1040.1 477.0 L 1031.9 471.6 L 1023.9 465.8 L 1016.2 459.6 L 1008.9 453.1 L 1002.1 446.1 L 996.0 438.8 L 990.5 431.0 L 985.9 422.9 L 982.1 414.5 L 979.2 405.8 L 977.2 396.9 L 976.2 387.9 L 976.0 378.8 L 976.7 369.7 L 978.2 360.7 L 980.4 351.7 L 983.1 342.9 L 986.4 334.4 L 990.0 326.0 L 993.8 317.9 L 997.7 309.9 L 1001.6 302.2 L 1005.4 294.6 L 1009.0 287.2 L 1012.2 279.8 L 1015.1 272.4 L 1017.7 265.0 L 1019.9 257.5 L 1021.7 249.9 L 1023.1 242.0 L 1024.4 233.9 L 1025.4 225.6 L 1026.4 216.9 L 1027.4 208.1 L 1028.6 199.0 L 1030.1 189.8 L 1031.9 180.4 L 1034.3 171.1 L 1037.3 161.7 L 1040.9 152.5 L 1045.3 143.6 L 1050.5 135.1 L 1056.5 126.9 L 1063.3 119.4 L 1071.0 112.5 L 1079.3 106.3 L 1088.4 100.9 L 1098.1 96.4 L 1108.3 92.6 L 1118.9 89.7 L 1129.8 87.6 L 1140.9 86.3 L 1152.1 85.7 L 1163.3 85.8 L 1174.4 86.4 L 1185.4 87.4 L 1196.2 88.8 L 1206.7 90.4 L 1217.0 92.1 L 1227.0 93.9 L 1236.8 95.5 L 1246.4 97.0 L 1255.8 98.3 L 1265.0 99.4 L 1274.2 100.1 L 1283.3 100.6 L 1292.5 100.8 L 1301.8 100.8 L 1311.2 100.6 L 1320.8 100.3 L 1330.6 99.9 L 1340.5 99.7 L 1350.6 99.6 L 1360.8 99.8 L 1371.1 100.3 L 1381.4 101.2 L 1391.7 102.7 L 1401.8 104.8 L 1411.8 107.5 L 1421.4 110.8 L 1430.7 114.8 L 1439.5 119.5 L 1447.8 124.9 L 1455.6 130.8 L 1462.7 137.3 L 1469.2 144.2 L 1475.1 151.6 L 1480.4 159.3 L 1485.1 167.2 L 1489.3 175.3 L 1493.1 183.6 L 1496.5 191.8 L 1499.6 200.0 L 1502.6 208.1 L 1505.4 216.1 L 1508.3 224.0 L 1511.3 231.7 L 1514.4 239.4 L 1517.7 246.9 L 1521.3 254.4 L 1525.1 261.9 L 1529.2 269.4 L 1533.6 276.9 L 1538.1 284.6 L 1542.6 292.5 L 1547.2 300.5 L 1551.7 308.8 L 1556.0 317.3 L 1560.0 326.0 Z"/><path class="contour" opacity="0.30" d="M 1548.0 326.0 L 1551.2 334.6 L 1553.7 343.4 L 1555.3 352.3 L 1556.0 361.2 L 1555.7 370.2 L 1554.4 379.0 L 1552.0 387.6 L 1548.6 396.0 L 1544.2 404.1 L 1538.8 411.9 L 1532.7 419.2 L 1525.8 426.0 L 1518.2 432.4 L 1510.2 438.3 L 1501.8 443.8 L 1493.2 448.8 L 1484.4 453.5 L 1475.6 457.8 L 1466.9 461.9 L 1458.3 465.7 L 1450.0 469.5 L 1442.1 473.3 L 1434.4 477.1 L 1427.0 481.0 L 1420.0 485.1 L 1413.2 489.4 L 1406.7 494.0 L 1400.4 498.9 L 1394.1 504.0 L 1387.9 509.3 L 1381.6 514.9 L 1375.2 520.6 L 1368.6 526.4 L 1361.7 532.1 L 1354.5 537.8 L 1347.0 543.3 L 1339.0 548.4 L 1330.8 553.2 L 1322.1 557.5 L 1313.1 561.2 L 1303.9 564.3 L 1294.4 566.6 L 1284.7 568.2 L 1274.9 569.1 L 1265.0 569.2 L 1255.2 568.5 L 1245.4 567.1 L 1235.8 565.0 L 1226.4 562.4 L 1217.3 559.2 L 1208.4 555.6 L 1199.7 551.6 L 1191.3 547.4 L 1183.2 543.0 L 1175.2 538.5 L 1167.5 534.0 L 1159.8 529.5 L 1152.2 525.2 L 1144.6 521.0 L 1137.0 516.9 L 1129.3 513.0 L 1121.5 509.2 L 1113.6 505.6 L 1105.4 502.0 L 1097.1 498.3 L 1088.7 494.7 L 1080.2 490.9 L 1071.6 486.9 L 1063.0 482.7 L 1054.6 478.1 L 1046.3 473.2 L 1038.4 467.8 L 1030.8 462.1 L 1023.8 455.9 L 1017.3 449.2 L 1011.6 442.1 L 1006.6 434.5 L 1002.5 426.7 L 999.3 418.5 L 997.0 410.0 L 995.6 401.4 L 995.1 392.7 L 995.4 383.9 L 996.5 375.2 L 998.3 366.5 L 1000.7 358.0 L 1003.6 349.7 L 1006.9 341.5 L 1010.4 333.7 L 1014.0 326.0 L 1017.5 318.6 L 1021.0 311.3 L 1024.3 304.2 L 1027.2 297.2 L 1029.8 290.3 L 1032.0 283.3 L 1033.8 276.4 L 1035.2 269.2 L 1036.3 262.0 L 1037.0 254.5 L 1037.6 246.8 L 1037.9 238.9 L 1038.3 230.7 L 1038.7 222.4 L 1039.4 213.8 L 1040.3 205.0 L 1041.7 196.2 L 1043.6 187.4 L 1046.1 178.7 L 1049.3 170.1 L 1053.2 161.7 L 1057.9 153.7 L 1063.4 146.2 L 1069.7 139.2 L 1076.7 132.7 L 1084.5 127.0 L 1092.8 121.9 L 1101.7 117.5 L 1111.1 113.9 L 1120.9 111.0 L 1130.9 108.7 L 1141.1 107.1 L 1151.4 106.1 L 1161.6 105.6 L 1171.9 105.5 L 1181.9 105.8 L 1191.9 106.3 L 1201.6 106.9 L 1211.1 107.6 L 1220.4 108.2 L 1229.6 108.8 L 1238.5 109.2 L 1247.4 109.4 L 1256.2 109.4 L 1265.0 109.2 L 1273.8 108.8 L 1282.7 108.2 L 1291.7 107.6 L 1300.8 106.9 L 1310.0 106.2 L 1319.4 105.6 L 1328.9 105.3 L 1338.5 105.2 L 1348.2 105.5 L 1357.9 106.2 L 1367.5 107.5 L 1377.0 109.3 L 1386.3 111.7 L 1395.3 114.8 L 1404.0 118.6 L 1412.3 122.9 L 1420.1 127.9 L 1427.4 133.4 L 1434.2 139.5 L 1440.4 146.0 L 1446.0 152.8 L 1451.1 160.0 L 1455.7 167.4 L 1459.9 174.9 L 1463.6 182.4 L 1467.1 190.0 L 1470.4 197.5 L 1473.5 204.8 L 1476.6 212.1 L 1479.8 219.2 L 1483.1 226.1 L 1486.6 232.9 L 1490.4 239.6 L 1494.4 246.2 L 1498.8 252.7 L 1503.4 259.3 L 1508.4 265.9 L 1513.5 272.6 L 1518.8 279.5 L 1524.2 286.6 L 1529.5 294.0 L 1534.7 301.6 L 1539.6 309.5 L 1544.0 317.6 L 1548.0 326.0 Z"/><path class="contour" opacity="0.36" d="M 1533.0 326.0 L 1535.6 334.2 L 1537.4 342.4 L 1538.2 350.8 L 1538.1 359.1 L 1537.0 367.4 L 1534.9 375.5 L 1531.8 383.4 L 1527.8 391.1 L 1523.0 398.4 L 1517.5 405.4 L 1511.3 411.9 L 1504.6 418.1 L 1497.4 423.9 L 1489.9 429.3 L 1482.3 434.3 L 1474.5 439.0 L 1466.8 443.5 L 1459.2 447.8 L 1451.7 452.0 L 1444.5 456.1 L 1437.5 460.1 L 1430.8 464.3 L 1424.4 468.5 L 1418.2 472.9 L 1412.3 477.5 L 1406.4 482.3 L 1400.7 487.3 L 1395.0 492.5 L 1389.3 497.8 L 1383.5 503.2 L 1377.4 508.6 L 1371.2 514.0 L 1364.7 519.3 L 1357.8 524.4 L 1350.7 529.2 L 1343.2 533.7 L 1335.3 537.7 L 1327.1 541.2 L 1318.7 544.1 L 1310.0 546.4 L 1301.1 548.0 L 1292.1 549.0 L 1283.1 549.2 L 1274.0 548.9 L 1265.0 547.8 L 1256.1 546.2 L 1247.3 544.1 L 1238.8 541.6 L 1230.4 538.7 L 1222.2 535.5 L 1214.3 532.1 L 1206.5 528.6 L 1198.9 525.1 L 1191.4 521.6 L 1184.0 518.2 L 1176.6 514.9 L 1169.2 511.8 L 1161.7 508.8 L 1154.1 506.0 L 1146.4 503.4 L 1138.5 500.8 L 1130.4 498.3 L 1122.1 495.8 L 1113.6 493.3 L 1105.0 490.6 L 1096.4 487.7 L 1087.7 484.5 L 1079.1 481.0 L 1070.6 477.1 L 1062.4 472.8 L 1054.6 467.9 L 1047.2 462.6 L 1040.4 456.8 L 1034.3 450.5 L 1028.9 443.7 L 1024.2 436.5 L 1020.5 429.0 L 1017.6 421.1 L 1015.6 413.0 L 1014.4 404.7 L 1014.1 396.4 L 1014.6 388.0 L 1015.8 379.6 L 1017.6 371.4 L 1019.9 363.3 L 1022.7 355.4 L 1025.6 347.7 L 1028.8 340.3 L 1031.9 333.0 L 1035.0 326.0 L 1037.9 319.2 L 1040.6 312.5 L 1043.0 305.8 L 1044.9 299.3 L 1046.5 292.7 L 1047.8 286.1 L 1048.6 279.4 L 1049.1 272.6 L 1049.4 265.5 L 1049.5 258.3 L 1049.6 250.8 L 1049.6 243.2 L 1049.8 235.4 L 1050.2 227.4 L 1051.0 219.3 L 1052.2 211.2 L 1053.9 203.1 L 1056.3 195.1 L 1059.3 187.2 L 1063.0 179.7 L 1067.5 172.4 L 1072.6 165.6 L 1078.5 159.2 L 1085.0 153.4 L 1092.2 148.1 L 1099.8 143.5 L 1108.0 139.4 L 1116.6 136.0 L 1125.4 133.1 L 1134.5 130.8 L 1143.6 128.9 L 1152.9 127.5 L 1162.1 126.5 L 1171.3 125.7 L 1180.3 125.2 L 1189.3 124.8 L 1198.0 124.4 L 1206.7 124.0 L 1215.2 123.5 L 1223.5 122.9 L 1231.8 122.2 L 1240.1 121.3 L 1248.3 120.3 L 1256.6 119.1 L 1265.0 117.8 L 1273.5 116.5 L 1282.1 115.2 L 1290.8 113.9 L 1299.7 112.9 L 1308.7 112.0 L 1317.8 111.5 L 1327.0 111.4 L 1336.2 111.7 L 1345.3 112.6 L 1354.3 114.1 L 1363.2 116.2 L 1371.8 118.9 L 1380.0 122.3 L 1387.9 126.4 L 1395.4 131.0 L 1402.4 136.2 L 1408.9 141.9 L 1414.8 148.0 L 1420.2 154.5 L 1425.1 161.2 L 1429.6 168.2 L 1433.6 175.2 L 1437.3 182.3 L 1440.7 189.4 L 1443.9 196.4 L 1447.0 203.2 L 1450.1 209.9 L 1453.3 216.3 L 1456.6 222.6 L 1460.1 228.7 L 1463.9 234.7 L 1468.1 240.5 L 1472.5 246.2 L 1477.3 251.9 L 1482.4 257.7 L 1487.8 263.5 L 1493.3 269.5 L 1499.0 275.6 L 1504.7 282.0 L 1510.4 288.6 L 1515.8 295.6 L 1520.9 302.8 L 1525.6 310.3 L 1529.6 318.0 L 1533.0 326.0 Z"/><path class="contour" opacity="0.42" d="M 1515.1 326.0 L 1516.8 333.6 L 1517.6 341.3 L 1517.6 349.0 L 1516.6 356.6 L 1514.8 364.1 L 1512.1 371.5 L 1508.6 378.6 L 1504.4 385.4 L 1499.6 392.0 L 1494.2 398.2 L 1488.5 404.2 L 1482.3 409.8 L 1476.0 415.1 L 1469.5 420.2 L 1463.0 425.0 L 1456.6 429.6 L 1450.2 434.2 L 1444.0 438.6 L 1438.0 443.0 L 1432.2 447.5 L 1426.6 452.0 L 1421.2 456.6 L 1415.9 461.3 L 1410.8 466.2 L 1405.7 471.2 L 1400.7 476.4 L 1395.6 481.6 L 1390.3 486.9 L 1384.9 492.1 L 1379.2 497.3 L 1373.3 502.4 L 1367.1 507.2 L 1360.6 511.8 L 1353.7 516.0 L 1346.5 519.8 L 1339.0 523.1 L 1331.2 525.8 L 1323.2 528.0 L 1315.0 529.5 L 1306.6 530.4 L 1298.2 530.7 L 1289.8 530.4 L 1281.4 529.6 L 1273.2 528.2 L 1265.0 526.4 L 1257.0 524.2 L 1249.2 521.7 L 1241.6 519.0 L 1234.1 516.1 L 1226.9 513.2 L 1219.7 510.3 L 1212.7 507.5 L 1205.8 504.8 L 1198.8 502.3 L 1191.9 500.0 L 1184.8 497.9 L 1177.6 496.0 L 1170.2 494.2 L 1162.7 492.6 L 1154.9 491.1 L 1146.9 489.6 L 1138.8 488.0 L 1130.4 486.4 L 1122.0 484.5 L 1113.4 482.4 L 1104.9 479.9 L 1096.5 477.1 L 1088.2 473.8 L 1080.3 470.0 L 1072.7 465.7 L 1065.6 460.9 L 1059.1 455.5 L 1053.2 449.7 L 1048.1 443.4 L 1043.7 436.6 L 1040.1 429.5 L 1037.4 422.1 L 1035.5 414.5 L 1034.4 406.7 L 1034.1 398.8 L 1034.4 390.9 L 1035.4 383.0 L 1036.9 375.2 L 1038.8 367.6 L 1041.0 360.2 L 1043.5 353.0 L 1046.0 345.9 L 1048.5 339.1 L 1050.9 332.5 L 1053.1 326.0 L 1055.1 319.7 L 1056.7 313.4 L 1058.1 307.2 L 1059.1 300.9 L 1059.8 294.7 L 1060.2 288.3 L 1060.3 281.8 L 1060.3 275.2 L 1060.2 268.4 L 1060.1 261.4 L 1060.1 254.3 L 1060.3 247.1 L 1060.8 239.8 L 1061.6 232.4 L 1062.9 225.0 L 1064.8 217.7 L 1067.2 210.5 L 1070.2 203.5 L 1073.9 196.8 L 1078.3 190.4 L 1083.3 184.3 L 1088.9 178.7 L 1095.0 173.6 L 1101.7 169.0 L 1108.8 164.8 L 1116.2 161.2 L 1124.0 158.0 L 1132.0 155.2 L 1140.1 152.9 L 1148.2 150.9 L 1156.4 149.2 L 1164.6 147.7 L 1172.6 146.4 L 1180.6 145.2 L 1188.5 143.9 L 1196.2 142.7 L 1203.8 141.3 L 1211.4 139.9 L 1218.9 138.3 L 1226.4 136.5 L 1233.9 134.6 L 1241.5 132.6 L 1249.2 130.6 L 1257.0 128.5 L 1265.0 126.4 L 1273.1 124.4 L 1281.4 122.7 L 1289.9 121.2 L 1298.4 120.0 L 1307.1 119.3 L 1315.8 119.1 L 1324.5 119.4 L 1333.1 120.3 L 1341.6 121.9 L 1349.9 124.1 L 1357.9 127.0 L 1365.5 130.5 L 1372.8 134.7 L 1379.6 139.4 L 1385.9 144.7 L 1391.8 150.4 L 1397.1 156.4 L 1402.0 162.8 L 1406.4 169.3 L 1410.4 176.0 L 1414.0 182.7 L 1417.4 189.4 L 1420.6 195.9 L 1423.6 202.3 L 1426.6 208.6 L 1429.7 214.6 L 1432.9 220.4 L 1436.2 226.0 L 1439.9 231.4 L 1443.8 236.6 L 1448.1 241.7 L 1452.7 246.8 L 1457.6 251.8 L 1462.8 256.8 L 1468.2 262.0 L 1473.8 267.3 L 1479.5 272.8 L 1485.2 278.5 L 1490.7 284.5 L 1496.0 290.7 L 1501.0 297.3 L 1505.4 304.1 L 1509.4 311.2 L 1512.6 318.5 L 1515.1 326.0 Z"/><path class="contour" opacity="0.47" d="M 1494.6 326.0 L 1495.2 333.0 L 1495.1 340.0 L 1494.2 346.9 L 1492.5 353.8 L 1490.2 360.5 L 1487.2 367.0 L 1483.6 373.3 L 1479.5 379.4 L 1475.0 385.3 L 1470.3 390.9 L 1465.3 396.3 L 1460.1 401.4 L 1454.9 406.4 L 1449.7 411.3 L 1444.6 416.1 L 1439.6 420.7 L 1434.7 425.4 L 1430.0 430.1 L 1425.4 434.9 L 1421.0 439.7 L 1416.7 444.6 L 1412.4 449.7 L 1408.2 454.8 L 1403.9 460.0 L 1399.6 465.3 L 1395.0 470.6 L 1390.3 475.8 L 1385.3 481.0 L 1380.1 486.0 L 1374.5 490.7 L 1368.6 495.2 L 1362.3 499.3 L 1355.7 503.0 L 1348.8 506.2 L 1341.7 508.9 L 1334.2 511.0 L 1326.6 512.6 L 1318.8 513.5 L 1311.0 513.8 L 1303.1 513.6 L 1295.2 512.9 L 1287.5 511.7 L 1279.8 510.0 L 1272.3 508.1 L 1265.0 505.8 L 1257.9 503.4 L 1250.9 500.8 L 1244.2 498.3 L 1237.5 495.8 L 1231.0 493.4 L 1224.6 491.1 L 1218.2 489.1 L 1211.8 487.2 L 1205.3 485.7 L 1198.7 484.3 L 1191.9 483.2 L 1184.9 482.2 L 1177.8 481.3 L 1170.4 480.6 L 1162.8 479.8 L 1155.0 478.9 L 1147.0 477.9 L 1138.9 476.7 L 1130.8 475.2 L 1122.7 473.3 L 1114.7 471.0 L 1106.9 468.2 L 1099.4 464.9 L 1092.3 461.1 L 1085.6 456.8 L 1079.4 451.9 L 1073.9 446.6 L 1069.1 440.8 L 1064.9 434.6 L 1061.5 428.0 L 1058.9 421.2 L 1057.0 414.1 L 1055.7 406.9 L 1055.2 399.6 L 1055.2 392.3 L 1055.7 385.1 L 1056.7 377.9 L 1058.0 370.8 L 1059.5 363.9 L 1061.1 357.2 L 1062.8 350.7 L 1064.5 344.3 L 1066.1 338.1 L 1067.4 332.0 L 1068.6 326.0 L 1069.5 320.1 L 1070.1 314.2 L 1070.5 308.2 L 1070.7 302.3 L 1070.6 296.2 L 1070.5 290.1 L 1070.2 283.8 L 1070.0 277.4 L 1069.9 270.9 L 1069.9 264.3 L 1070.3 257.7 L 1070.9 251.0 L 1072.0 244.2 L 1073.6 237.6 L 1075.7 231.1 L 1078.3 224.7 L 1081.5 218.5 L 1085.4 212.6 L 1089.7 207.1 L 1094.7 201.9 L 1100.1 197.0 L 1106.0 192.6 L 1112.3 188.6 L 1118.9 185.0 L 1125.7 181.8 L 1132.8 179.0 L 1139.9 176.5 L 1147.1 174.2 L 1154.3 172.2 L 1161.5 170.3 L 1168.6 168.5 L 1175.6 166.8 L 1182.5 165.0 L 1189.3 163.2 L 1196.0 161.2 L 1202.6 159.1 L 1209.2 156.9 L 1215.8 154.5 L 1222.4 151.9 L 1229.1 149.2 L 1236.0 146.5 L 1242.9 143.7 L 1250.1 140.9 L 1257.5 138.3 L 1265.0 135.8 L 1272.7 133.6 L 1280.6 131.7 L 1288.7 130.3 L 1296.8 129.4 L 1305.0 129.0 L 1313.2 129.2 L 1321.3 130.0 L 1329.2 131.6 L 1336.9 133.8 L 1344.4 136.6 L 1351.5 140.1 L 1358.2 144.2 L 1364.5 148.8 L 1370.4 153.9 L 1375.8 159.4 L 1380.7 165.2 L 1385.2 171.2 L 1389.3 177.4 L 1393.1 183.6 L 1396.5 189.9 L 1399.8 196.0 L 1402.8 202.0 L 1405.8 207.9 L 1408.8 213.5 L 1411.9 218.9 L 1415.1 224.1 L 1418.6 229.1 L 1422.3 233.9 L 1426.2 238.5 L 1430.5 243.0 L 1435.0 247.5 L 1439.9 251.9 L 1444.9 256.4 L 1450.1 261.0 L 1455.5 265.8 L 1460.9 270.7 L 1466.2 275.9 L 1471.3 281.3 L 1476.2 287.0 L 1480.7 293.0 L 1484.7 299.2 L 1488.2 305.6 L 1491.0 312.3 L 1493.2 319.1 L 1494.6 326.0 Z"/><path class="contour" opacity="0.53" d="M 1472.2 326.0 L 1471.8 332.3 L 1470.9 338.5 L 1469.3 344.7 L 1467.1 350.8 L 1464.5 356.7 L 1461.5 362.4 L 1458.1 368.0 L 1454.5 373.4 L 1450.6 378.6 L 1446.7 383.6 L 1442.7 388.6 L 1438.7 393.4 L 1434.8 398.2 L 1431.0 402.9 L 1427.3 407.7 L 1423.7 412.5 L 1420.2 417.3 L 1416.9 422.2 L 1413.6 427.2 L 1410.4 432.4 L 1407.1 437.6 L 1403.8 442.9 L 1400.3 448.2 L 1396.7 453.5 L 1392.8 458.8 L 1388.7 464.0 L 1384.2 469.1 L 1379.4 473.9 L 1374.2 478.4 L 1368.7 482.6 L 1362.8 486.3 L 1356.5 489.6 L 1350.0 492.4 L 1343.2 494.6 L 1336.1 496.3 L 1328.9 497.4 L 1321.5 497.9 L 1314.2 497.9 L 1306.8 497.4 L 1299.5 496.4 L 1292.2 495.0 L 1285.2 493.2 L 1278.3 491.2 L 1271.5 489.1 L 1265.0 486.8 L 1258.7 484.5 L 1252.5 482.2 L 1246.4 480.0 L 1240.5 478.0 L 1234.6 476.3 L 1228.7 474.7 L 1222.8 473.4 L 1216.9 472.4 L 1210.7 471.6 L 1204.5 471.0 L 1198.0 470.5 L 1191.4 470.2 L 1184.5 469.9 L 1177.4 469.6 L 1170.2 469.1 L 1162.8 468.5 L 1155.4 467.7 L 1147.9 466.5 L 1140.4 465.0 L 1133.1 463.1 L 1125.9 460.7 L 1119.0 457.8 L 1112.5 454.4 L 1106.4 450.5 L 1100.8 446.1 L 1095.8 441.3 L 1091.3 436.0 L 1087.4 430.4 L 1084.2 424.5 L 1081.6 418.3 L 1079.7 411.9 L 1078.3 405.4 L 1077.4 398.8 L 1077.0 392.2 L 1077.0 385.7 L 1077.3 379.2 L 1077.8 372.8 L 1078.5 366.5 L 1079.3 360.4 L 1080.1 354.4 L 1080.8 348.6 L 1081.4 342.8 L 1081.8 337.2 L 1082.1 331.6 L 1082.2 326.0 L 1082.1 320.4 L 1081.8 314.8 L 1081.4 309.2 L 1080.9 303.4 L 1080.4 297.6 L 1080.0 291.7 L 1079.7 285.7 L 1079.6 279.6 L 1079.7 273.5 L 1080.2 267.4 L 1081.1 261.2 L 1082.4 255.1 L 1084.3 249.1 L 1086.6 243.3 L 1089.5 237.7 L 1093.0 232.3 L 1096.9 227.2 L 1101.4 222.4 L 1106.3 217.9 L 1111.6 213.8 L 1117.3 210.1 L 1123.3 206.7 L 1129.4 203.6 L 1135.8 200.9 L 1142.2 198.4 L 1148.6 196.1 L 1155.0 194.0 L 1161.3 192.0 L 1167.6 190.1 L 1173.7 188.1 L 1179.7 186.1 L 1185.6 184.0 L 1191.4 181.8 L 1197.1 179.4 L 1202.7 176.8 L 1208.4 174.0 L 1214.0 171.1 L 1219.8 168.0 L 1225.7 164.8 L 1231.7 161.5 L 1238.0 158.3 L 1244.4 155.1 L 1251.0 152.1 L 1257.9 149.3 L 1265.0 146.8 L 1272.3 144.7 L 1279.7 143.0 L 1287.2 141.9 L 1294.8 141.4 L 1302.3 141.4 L 1309.8 142.1 L 1317.2 143.5 L 1324.4 145.5 L 1331.3 148.2 L 1337.9 151.5 L 1344.1 155.3 L 1350.0 159.6 L 1355.5 164.3 L 1360.5 169.4 L 1365.2 174.7 L 1369.5 180.2 L 1373.5 185.8 L 1377.1 191.5 L 1380.5 197.1 L 1383.8 202.6 L 1386.9 208.0 L 1390.0 213.2 L 1393.1 218.2 L 1396.2 223.0 L 1399.6 227.6 L 1403.1 232.0 L 1406.8 236.2 L 1410.8 240.3 L 1415.0 244.3 L 1419.4 248.3 L 1424.0 252.3 L 1428.8 256.4 L 1433.7 260.5 L 1438.6 264.9 L 1443.5 269.4 L 1448.2 274.1 L 1452.7 279.1 L 1456.9 284.3 L 1460.8 289.7 L 1464.1 295.4 L 1467.0 301.3 L 1469.2 307.3 L 1470.9 313.4 L 1471.9 319.7 L 1472.2 326.0 Z"/><path class="contour" opacity="0.58" d="M 1448.8 326.0 L 1447.7 331.6 L 1446.1 337.1 L 1444.1 342.5 L 1441.8 347.8 L 1439.2 352.9 L 1436.4 357.9 L 1433.4 362.8 L 1430.4 367.5 L 1427.4 372.2 L 1424.4 376.8 L 1421.5 381.4 L 1418.7 385.9 L 1416.1 390.5 L 1413.6 395.2 L 1411.2 399.9 L 1408.8 404.7 L 1406.6 409.6 L 1404.4 414.7 L 1402.1 419.8 L 1399.8 425.0 L 1397.3 430.3 L 1394.6 435.6 L 1391.7 440.9 L 1388.5 446.1 L 1385.0 451.2 L 1381.0 456.1 L 1376.7 460.7 L 1372.0 465.0 L 1367.0 468.9 L 1361.5 472.4 L 1355.7 475.3 L 1349.6 477.8 L 1343.2 479.8 L 1336.6 481.2 L 1329.8 482.0 L 1323.0 482.3 L 1316.1 482.2 L 1309.3 481.5 L 1302.5 480.5 L 1295.8 479.1 L 1289.3 477.5 L 1283.0 475.6 L 1276.8 473.7 L 1270.8 471.6 L 1265.0 469.7 L 1259.3 467.7 L 1253.8 466.0 L 1248.4 464.4 L 1243.0 463.0 L 1237.6 461.9 L 1232.2 461.0 L 1226.7 460.4 L 1221.1 459.9 L 1215.4 459.7 L 1209.5 459.5 L 1203.4 459.5 L 1197.2 459.4 L 1190.8 459.3 L 1184.2 459.1 L 1177.5 458.7 L 1170.8 458.0 L 1164.1 457.0 L 1157.4 455.6 L 1150.9 453.9 L 1144.6 451.7 L 1138.5 449.1 L 1132.7 446.0 L 1127.3 442.4 L 1122.3 438.5 L 1117.9 434.1 L 1113.9 429.4 L 1110.4 424.4 L 1107.4 419.1 L 1105.0 413.6 L 1103.0 407.9 L 1101.4 402.2 L 1100.3 396.3 L 1099.5 390.5 L 1098.9 384.8 L 1098.6 379.0 L 1098.4 373.4 L 1098.3 367.9 L 1098.2 362.4 L 1098.0 357.1 L 1097.8 351.8 L 1097.5 346.6 L 1097.0 341.5 L 1096.4 336.3 L 1095.7 331.2 L 1094.8 326.0 L 1093.9 320.8 L 1093.0 315.5 L 1092.1 310.1 L 1091.2 304.6 L 1090.6 299.1 L 1090.1 293.4 L 1090.0 287.8 L 1090.1 282.1 L 1090.7 276.4 L 1091.8 270.8 L 1093.3 265.3 L 1095.4 259.9 L 1097.9 254.6 L 1101.0 249.6 L 1104.6 244.9 L 1108.6 240.4 L 1113.1 236.3 L 1118.0 232.5 L 1123.2 229.0 L 1128.6 225.8 L 1134.2 222.9 L 1140.0 220.3 L 1145.8 217.9 L 1151.6 215.8 L 1157.4 213.7 L 1163.1 211.8 L 1168.7 209.9 L 1174.1 208.0 L 1179.4 206.0 L 1184.5 203.9 L 1189.5 201.6 L 1194.4 199.2 L 1199.2 196.6 L 1204.0 193.7 L 1208.8 190.7 L 1213.6 187.5 L 1218.6 184.2 L 1223.6 180.7 L 1228.9 177.3 L 1234.4 173.8 L 1240.0 170.5 L 1246.0 167.3 L 1252.1 164.4 L 1258.5 161.8 L 1265.0 159.7 L 1271.7 157.9 L 1278.5 156.7 L 1285.4 156.1 L 1292.3 156.1 L 1299.1 156.6 L 1305.8 157.8 L 1312.4 159.6 L 1318.7 161.9 L 1324.8 164.8 L 1330.6 168.2 L 1336.0 172.0 L 1341.2 176.2 L 1345.9 180.7 L 1350.4 185.4 L 1354.5 190.2 L 1358.4 195.1 L 1362.1 200.0 L 1365.5 204.8 L 1368.8 209.6 L 1372.1 214.2 L 1375.3 218.7 L 1378.6 223.0 L 1382.0 227.1 L 1385.4 231.1 L 1389.0 234.9 L 1392.8 238.5 L 1396.8 242.2 L 1400.9 245.7 L 1405.2 249.3 L 1409.6 252.9 L 1414.0 256.6 L 1418.5 260.5 L 1422.9 264.4 L 1427.2 268.6 L 1431.3 273.0 L 1435.1 277.6 L 1438.6 282.4 L 1441.7 287.4 L 1444.3 292.6 L 1446.4 298.0 L 1448.0 303.5 L 1449.1 309.1 L 1449.5 314.7 L 1449.5 320.4 L 1448.8 326.0 Z"/><path class="contour" opacity="0.64" d="M 1425.5 326.0 L 1423.9 330.9 L 1422.0 335.7 L 1419.9 340.3 L 1417.6 344.9 L 1415.3 349.3 L 1412.9 353.7 L 1410.6 358.0 L 1408.3 362.2 L 1406.2 366.4 L 1404.1 370.6 L 1402.3 374.8 L 1400.6 379.1 L 1399.0 383.5 L 1397.5 388.0 L 1396.1 392.7 L 1394.8 397.4 L 1393.4 402.3 L 1392.0 407.2 L 1390.5 412.3 L 1388.7 417.4 L 1386.7 422.5 L 1384.5 427.6 L 1381.9 432.6 L 1378.9 437.4 L 1375.5 442.0 L 1371.8 446.3 L 1367.6 450.4 L 1363.0 454.0 L 1358.1 457.2 L 1352.8 459.9 L 1347.3 462.2 L 1341.4 464.0 L 1335.4 465.2 L 1329.2 466.0 L 1323.0 466.3 L 1316.7 466.2 L 1310.5 465.6 L 1304.3 464.7 L 1298.2 463.6 L 1292.3 462.2 L 1286.5 460.7 L 1280.9 459.1 L 1275.4 457.5 L 1270.2 456.0 L 1265.0 454.5 L 1260.0 453.2 L 1255.0 452.0 L 1250.1 451.1 L 1245.2 450.3 L 1240.2 449.8 L 1235.2 449.5 L 1230.1 449.3 L 1224.9 449.2 L 1219.5 449.3 L 1214.0 449.3 L 1208.4 449.3 L 1202.7 449.3 L 1196.8 449.1 L 1190.9 448.6 L 1185.0 448.0 L 1179.2 447.0 L 1173.4 445.6 L 1167.7 443.9 L 1162.2 441.8 L 1157.0 439.3 L 1152.1 436.5 L 1147.4 433.2 L 1143.2 429.6 L 1139.4 425.6 L 1135.9 421.4 L 1132.9 416.9 L 1130.3 412.2 L 1128.0 407.4 L 1126.1 402.4 L 1124.5 397.4 L 1123.2 392.4 L 1122.0 387.4 L 1121.1 382.4 L 1120.2 377.5 L 1119.4 372.7 L 1118.5 367.9 L 1117.7 363.2 L 1116.7 358.5 L 1115.7 353.9 L 1114.6 349.4 L 1113.3 344.8 L 1111.9 340.2 L 1110.5 335.5 L 1109.0 330.8 L 1107.5 326.0 L 1106.1 321.1 L 1104.8 316.1 L 1103.6 311.1 L 1102.7 305.9 L 1102.1 300.7 L 1101.9 295.5 L 1102.0 290.2 L 1102.6 285.0 L 1103.7 279.9 L 1105.3 274.8 L 1107.4 269.9 L 1110.1 265.3 L 1113.2 260.8 L 1116.7 256.6 L 1120.7 252.7 L 1125.1 249.0 L 1129.8 245.7 L 1134.7 242.7 L 1139.9 239.9 L 1145.1 237.4 L 1150.4 235.2 L 1155.7 233.1 L 1161.0 231.1 L 1166.1 229.3 L 1171.1 227.5 L 1176.0 225.7 L 1180.7 223.8 L 1185.2 221.9 L 1189.6 219.7 L 1193.8 217.5 L 1198.0 215.0 L 1202.0 212.3 L 1206.1 209.4 L 1210.1 206.4 L 1214.2 203.2 L 1218.5 199.9 L 1222.8 196.5 L 1227.4 193.1 L 1232.1 189.7 L 1237.1 186.5 L 1242.2 183.4 L 1247.7 180.7 L 1253.3 178.2 L 1259.1 176.1 L 1265.0 174.5 L 1271.1 173.3 L 1277.2 172.7 L 1283.3 172.6 L 1289.4 173.1 L 1295.4 174.1 L 1301.3 175.6 L 1307.0 177.6 L 1312.5 180.1 L 1317.8 183.0 L 1322.8 186.2 L 1327.5 189.7 L 1332.0 193.5 L 1336.2 197.4 L 1340.2 201.4 L 1344.0 205.5 L 1347.7 209.5 L 1351.2 213.5 L 1354.6 217.4 L 1358.0 221.2 L 1361.4 224.8 L 1364.8 228.4 L 1368.3 231.8 L 1372.0 235.1 L 1375.7 238.3 L 1379.5 241.4 L 1383.5 244.5 L 1387.5 247.6 L 1391.6 250.8 L 1395.8 254.1 L 1399.9 257.4 L 1403.9 261.0 L 1407.8 264.7 L 1411.6 268.5 L 1415.0 272.6 L 1418.2 276.9 L 1421.0 281.4 L 1423.4 286.0 L 1425.3 290.8 L 1426.8 295.7 L 1427.7 300.7 L 1428.2 305.8 L 1428.2 310.9 L 1427.7 316.0 L 1426.8 321.0 L 1425.5 326.0 Z"/><path class="contour" opacity="0.69" d="M 1403.1 326.0 L 1401.3 330.2 L 1399.3 334.3 L 1397.4 338.3 L 1395.4 342.2 L 1393.5 346.1 L 1391.7 349.9 L 1390.0 353.6 L 1388.5 357.4 L 1387.2 361.2 L 1386.0 365.0 L 1385.0 369.0 L 1384.1 373.0 L 1383.3 377.2 L 1382.6 381.5 L 1381.9 385.9 L 1381.2 390.4 L 1380.4 395.0 L 1379.4 399.7 L 1378.2 404.4 L 1376.8 409.2 L 1375.1 413.9 L 1373.0 418.5 L 1370.5 422.9 L 1367.7 427.1 L 1364.5 431.1 L 1360.9 434.8 L 1356.9 438.1 L 1352.5 441.0 L 1347.9 443.5 L 1342.9 445.6 L 1337.7 447.3 L 1332.4 448.5 L 1326.9 449.3 L 1321.3 449.6 L 1315.8 449.7 L 1310.2 449.4 L 1304.7 448.8 L 1299.3 448.0 L 1294.0 447.0 L 1288.9 446.0 L 1283.8 444.9 L 1279.0 443.8 L 1274.2 442.8 L 1269.6 441.8 L 1265.0 441.0 L 1260.5 440.3 L 1256.0 439.8 L 1251.5 439.5 L 1247.0 439.3 L 1242.5 439.2 L 1237.9 439.2 L 1233.1 439.3 L 1228.3 439.4 L 1223.4 439.5 L 1218.4 439.5 L 1213.3 439.4 L 1208.2 439.1 L 1203.1 438.6 L 1198.0 437.8 L 1192.9 436.7 L 1188.0 435.3 L 1183.2 433.6 L 1178.6 431.5 L 1174.2 429.0 L 1170.1 426.3 L 1166.3 423.2 L 1162.8 419.9 L 1159.6 416.3 L 1156.7 412.4 L 1154.2 408.5 L 1151.9 404.3 L 1149.9 400.1 L 1148.2 395.9 L 1146.6 391.6 L 1145.2 387.3 L 1143.9 383.1 L 1142.6 378.9 L 1141.4 374.8 L 1140.1 370.7 L 1138.8 366.7 L 1137.4 362.8 L 1135.9 358.8 L 1134.2 354.9 L 1132.5 351.0 L 1130.6 347.0 L 1128.7 343.0 L 1126.7 338.9 L 1124.8 334.7 L 1122.9 330.4 L 1121.1 326.0 L 1119.4 321.5 L 1118.0 316.9 L 1116.9 312.2 L 1116.2 307.5 L 1115.8 302.7 L 1115.9 297.9 L 1116.4 293.2 L 1117.4 288.5 L 1119.0 283.9 L 1121.0 279.5 L 1123.5 275.3 L 1126.5 271.3 L 1129.9 267.6 L 1133.6 264.1 L 1137.7 260.9 L 1142.1 257.9 L 1146.6 255.2 L 1151.3 252.8 L 1156.0 250.5 L 1160.8 248.5 L 1165.5 246.6 L 1170.1 244.8 L 1174.7 243.1 L 1179.0 241.3 L 1183.2 239.6 L 1187.2 237.8 L 1191.1 235.8 L 1194.8 233.8 L 1198.4 231.5 L 1201.9 229.1 L 1205.3 226.5 L 1208.8 223.8 L 1212.2 220.9 L 1215.7 217.8 L 1219.3 214.7 L 1223.1 211.6 L 1227.0 208.5 L 1231.1 205.4 L 1235.4 202.5 L 1239.9 199.8 L 1244.6 197.3 L 1249.5 195.2 L 1254.5 193.4 L 1259.7 192.0 L 1265.0 191.0 L 1270.3 190.5 L 1275.7 190.4 L 1281.0 190.8 L 1286.3 191.7 L 1291.5 193.0 L 1296.5 194.7 L 1301.4 196.7 L 1306.0 199.1 L 1310.5 201.8 L 1314.8 204.6 L 1319.0 207.6 L 1322.9 210.7 L 1326.7 213.9 L 1330.3 217.1 L 1333.9 220.2 L 1337.4 223.3 L 1340.9 226.3 L 1344.3 229.2 L 1347.8 232.0 L 1351.3 234.8 L 1355.0 237.4 L 1358.7 240.0 L 1362.4 242.6 L 1366.3 245.2 L 1370.2 247.8 L 1374.1 250.4 L 1378.1 253.2 L 1381.9 256.1 L 1385.7 259.1 L 1389.4 262.3 L 1392.9 265.7 L 1396.1 269.3 L 1399.0 273.1 L 1401.6 277.1 L 1403.8 281.2 L 1405.6 285.5 L 1406.9 289.9 L 1407.9 294.4 L 1408.3 299.0 L 1408.3 303.6 L 1407.9 308.2 L 1407.2 312.8 L 1406.1 317.3 L 1404.7 321.7 L 1403.1 326.0 Z"/><path class="contour" opacity="0.74" d="M 1382.0 326.0 L 1380.4 329.6 L 1378.7 333.1 L 1377.1 336.5 L 1375.6 339.9 L 1374.2 343.2 L 1373.0 346.5 L 1371.9 349.8 L 1371.1 353.2 L 1370.4 356.6 L 1369.8 360.1 L 1369.4 363.7 L 1369.1 367.4 L 1368.8 371.3 L 1368.5 375.2 L 1368.2 379.3 L 1367.8 383.4 L 1367.2 387.6 L 1366.3 391.8 L 1365.3 396.1 L 1363.9 400.2 L 1362.2 404.3 L 1360.2 408.2 L 1357.8 412.0 L 1355.1 415.5 L 1352.0 418.7 L 1348.6 421.7 L 1344.8 424.3 L 1340.8 426.5 L 1336.6 428.4 L 1332.1 429.9 L 1327.5 431.1 L 1322.8 431.9 L 1318.0 432.5 L 1313.2 432.7 L 1308.4 432.7 L 1303.7 432.5 L 1299.0 432.1 L 1294.4 431.6 L 1290.0 431.1 L 1285.6 430.5 L 1281.3 430.0 L 1277.2 429.5 L 1273.1 429.1 L 1269.0 428.8 L 1265.0 428.6 L 1261.0 428.5 L 1257.0 428.6 L 1252.9 428.7 L 1248.8 428.9 L 1244.7 429.1 L 1240.4 429.3 L 1236.1 429.5 L 1231.8 429.6 L 1227.4 429.6 L 1222.9 429.4 L 1218.5 429.0 L 1214.1 428.3 L 1209.7 427.4 L 1205.4 426.2 L 1201.3 424.7 L 1197.3 422.9 L 1193.5 420.8 L 1189.9 418.5 L 1186.5 415.8 L 1183.5 412.9 L 1180.6 409.8 L 1178.1 406.5 L 1175.7 403.1 L 1173.7 399.5 L 1171.8 395.9 L 1170.1 392.3 L 1168.6 388.7 L 1167.1 385.0 L 1165.8 381.5 L 1164.4 377.9 L 1163.0 374.5 L 1161.6 371.1 L 1160.1 367.8 L 1158.5 364.5 L 1156.8 361.2 L 1154.9 358.0 L 1152.9 354.7 L 1150.8 351.5 L 1148.6 348.1 L 1146.4 344.7 L 1144.2 341.2 L 1141.9 337.6 L 1139.8 333.8 L 1137.8 330.0 L 1136.0 326.0 L 1134.5 321.9 L 1133.3 317.8 L 1132.4 313.5 L 1132.0 309.3 L 1131.9 305.0 L 1132.4 300.8 L 1133.2 296.6 L 1134.6 292.6 L 1136.4 288.6 L 1138.7 284.9 L 1141.3 281.3 L 1144.4 278.0 L 1147.7 274.8 L 1151.3 271.9 L 1155.2 269.3 L 1159.1 266.8 L 1163.2 264.6 L 1167.3 262.5 L 1171.4 260.6 L 1175.5 258.8 L 1179.4 257.1 L 1183.3 255.4 L 1187.0 253.7 L 1190.5 252.0 L 1193.9 250.2 L 1197.1 248.3 L 1200.2 246.3 L 1203.3 244.1 L 1206.2 241.9 L 1209.1 239.4 L 1212.0 236.9 L 1214.9 234.2 L 1217.9 231.5 L 1221.0 228.7 L 1224.3 225.9 L 1227.7 223.2 L 1231.2 220.6 L 1234.9 218.1 L 1238.8 215.9 L 1242.9 213.9 L 1247.1 212.1 L 1251.4 210.7 L 1255.9 209.6 L 1260.4 208.9 L 1265.0 208.6 L 1269.6 208.7 L 1274.1 209.1 L 1278.6 209.9 L 1283.1 211.0 L 1287.4 212.5 L 1291.6 214.1 L 1295.7 216.1 L 1299.6 218.1 L 1303.4 220.3 L 1307.1 222.6 L 1310.6 225.0 L 1314.1 227.4 L 1317.5 229.7 L 1320.9 232.0 L 1324.3 234.2 L 1327.6 236.4 L 1331.0 238.5 L 1334.5 240.5 L 1338.0 242.4 L 1341.6 244.4 L 1345.2 246.3 L 1349.0 248.3 L 1352.7 250.3 L 1356.5 252.3 L 1360.2 254.5 L 1364.0 256.9 L 1367.6 259.3 L 1371.1 262.0 L 1374.4 264.9 L 1377.4 267.9 L 1380.2 271.2 L 1382.7 274.7 L 1384.8 278.3 L 1386.6 282.1 L 1387.9 286.0 L 1388.9 290.0 L 1389.4 294.1 L 1389.5 298.2 L 1389.3 302.4 L 1388.7 306.5 L 1387.8 310.6 L 1386.6 314.6 L 1385.2 318.5 L 1383.7 322.3 L 1382.0 326.0 Z"/><path class="contour" opacity="0.80" d="M 1362.7 326.0 L 1361.4 329.0 L 1360.1 332.0 L 1359.0 334.9 L 1358.0 337.8 L 1357.1 340.7 L 1356.4 343.6 L 1355.9 346.5 L 1355.5 349.5 L 1355.3 352.5 L 1355.1 355.7 L 1355.0 358.9 L 1355.0 362.2 L 1354.9 365.7 L 1354.7 369.2 L 1354.5 372.7 L 1354.1 376.4 L 1353.5 380.0 L 1352.6 383.6 L 1351.5 387.1 L 1350.1 390.6 L 1348.4 393.9 L 1346.4 397.1 L 1344.1 400.1 L 1341.4 402.8 L 1338.6 405.3 L 1335.4 407.5 L 1332.0 409.5 L 1328.5 411.1 L 1324.7 412.5 L 1320.9 413.6 L 1317.0 414.5 L 1313.0 415.1 L 1309.0 415.5 L 1305.1 415.8 L 1301.2 415.9 L 1297.3 415.9 L 1293.5 415.9 L 1289.8 415.8 L 1286.1 415.8 L 1282.5 415.8 L 1279.0 415.8 L 1275.4 415.9 L 1272.0 416.1 L 1268.5 416.4 L 1265.0 416.7 L 1261.5 417.1 L 1257.9 417.5 L 1254.3 418.0 L 1250.7 418.4 L 1246.9 418.7 L 1243.2 418.9 L 1239.4 419.1 L 1235.5 419.0 L 1231.7 418.8 L 1227.9 418.3 L 1224.1 417.6 L 1220.4 416.6 L 1216.8 415.3 L 1213.4 413.8 L 1210.1 412.0 L 1207.0 409.9 L 1204.1 407.6 L 1201.5 405.1 L 1199.0 402.4 L 1196.8 399.6 L 1194.7 396.6 L 1192.9 393.6 L 1191.2 390.5 L 1189.7 387.3 L 1188.3 384.2 L 1187.0 381.1 L 1185.7 378.1 L 1184.4 375.2 L 1183.1 372.3 L 1181.8 369.5 L 1180.3 366.7 L 1178.8 364.1 L 1177.1 361.4 L 1175.3 358.8 L 1173.3 356.2 L 1171.2 353.6 L 1169.1 350.9 L 1166.8 348.1 L 1164.6 345.3 L 1162.3 342.4 L 1160.1 339.3 L 1158.0 336.2 L 1156.0 332.9 L 1154.2 329.5 L 1152.7 326.0 L 1151.5 322.4 L 1150.6 318.8 L 1150.1 315.1 L 1150.0 311.4 L 1150.3 307.7 L 1151.0 304.1 L 1152.1 300.5 L 1153.7 297.1 L 1155.5 293.8 L 1157.8 290.7 L 1160.3 287.7 L 1163.1 285.0 L 1166.1 282.4 L 1169.3 280.0 L 1172.6 277.7 L 1176.0 275.7 L 1179.4 273.7 L 1182.7 271.9 L 1186.0 270.2 L 1189.2 268.5 L 1192.3 266.8 L 1195.3 265.1 L 1198.2 263.4 L 1200.9 261.6 L 1203.6 259.8 L 1206.1 257.8 L 1208.6 255.8 L 1211.0 253.6 L 1213.5 251.4 L 1215.9 249.1 L 1218.4 246.7 L 1221.0 244.3 L 1223.6 241.9 L 1226.4 239.6 L 1229.3 237.3 L 1232.4 235.2 L 1235.6 233.2 L 1239.0 231.5 L 1242.4 229.9 L 1246.0 228.7 L 1249.7 227.7 L 1253.5 227.0 L 1257.3 226.6 L 1261.2 226.5 L 1265.0 226.7 L 1268.8 227.2 L 1272.6 228.0 L 1276.3 229.0 L 1279.9 230.2 L 1283.4 231.6 L 1286.8 233.1 L 1290.2 234.7 L 1293.4 236.4 L 1296.6 238.1 L 1299.7 239.7 L 1302.8 241.4 L 1305.8 243.0 L 1308.9 244.6 L 1312.0 246.0 L 1315.1 247.5 L 1318.3 248.8 L 1321.6 250.1 L 1324.9 251.4 L 1328.3 252.7 L 1331.7 254.0 L 1335.2 255.4 L 1338.8 256.9 L 1342.3 258.5 L 1345.8 260.2 L 1349.2 262.1 L 1352.5 264.2 L 1355.6 266.4 L 1358.5 268.9 L 1361.2 271.6 L 1363.6 274.5 L 1365.7 277.5 L 1367.5 280.8 L 1368.9 284.1 L 1370.0 287.6 L 1370.6 291.2 L 1371.0 294.8 L 1370.9 298.5 L 1370.6 302.2 L 1370.0 305.8 L 1369.1 309.4 L 1368.0 312.9 L 1366.8 316.3 L 1365.5 319.6 L 1364.1 322.9 L 1362.7 326.0 Z"/><path class="contour" opacity="0.85" d="M 1345.0 326.0 L 1344.1 328.5 L 1343.3 331.0 L 1342.6 333.5 L 1342.1 336.0 L 1341.7 338.4 L 1341.4 340.9 L 1341.2 343.5 L 1341.1 346.1 L 1341.1 348.7 L 1341.1 351.5 L 1341.2 354.3 L 1341.1 357.2 L 1341.0 360.1 L 1340.8 363.1 L 1340.5 366.1 L 1339.9 369.0 L 1339.2 372.0 L 1338.2 374.9 L 1337.0 377.7 L 1335.5 380.4 L 1333.8 383.0 L 1331.8 385.4 L 1329.7 387.6 L 1327.3 389.6 L 1324.7 391.4 L 1321.9 393.0 L 1319.0 394.4 L 1316.0 395.5 L 1312.9 396.5 L 1309.8 397.4 L 1306.6 398.0 L 1303.5 398.6 L 1300.4 399.0 L 1297.2 399.4 L 1294.2 399.7 L 1291.2 400.1 L 1288.2 400.4 L 1285.3 400.8 L 1282.4 401.2 L 1279.5 401.6 L 1276.6 402.1 L 1273.8 402.7 L 1270.9 403.3 L 1268.0 404.0 L 1265.0 404.6 L 1262.0 405.3 L 1258.9 405.9 L 1255.8 406.5 L 1252.6 406.9 L 1249.4 407.2 L 1246.2 407.4 L 1242.9 407.3 L 1239.7 407.1 L 1236.5 406.6 L 1233.4 405.9 L 1230.3 404.9 L 1227.4 403.7 L 1224.6 402.2 L 1221.9 400.5 L 1219.4 398.6 L 1217.1 396.5 L 1215.0 394.2 L 1213.0 391.8 L 1211.3 389.2 L 1209.7 386.6 L 1208.2 384.0 L 1206.9 381.3 L 1205.7 378.7 L 1204.5 376.1 L 1203.4 373.5 L 1202.3 371.0 L 1201.2 368.6 L 1200.0 366.3 L 1198.7 364.1 L 1197.4 361.9 L 1195.9 359.8 L 1194.3 357.7 L 1192.6 355.6 L 1190.8 353.6 L 1188.8 351.5 L 1186.8 349.4 L 1184.8 347.2 L 1182.7 344.9 L 1180.6 342.5 L 1178.6 340.0 L 1176.7 337.4 L 1174.9 334.7 L 1173.4 331.9 L 1172.0 329.0 L 1171.0 326.0 L 1170.2 323.0 L 1169.7 319.9 L 1169.6 316.8 L 1169.8 313.7 L 1170.3 310.6 L 1171.2 307.7 L 1172.4 304.8 L 1173.9 302.0 L 1175.6 299.3 L 1177.6 296.8 L 1179.8 294.4 L 1182.2 292.1 L 1184.6 290.0 L 1187.2 288.0 L 1189.8 286.1 L 1192.4 284.3 L 1194.9 282.5 L 1197.4 280.9 L 1199.9 279.2 L 1202.2 277.6 L 1204.5 275.9 L 1206.7 274.2 L 1208.8 272.5 L 1210.8 270.7 L 1212.8 268.8 L 1214.8 266.9 L 1216.7 264.9 L 1218.7 262.9 L 1220.7 260.8 L 1222.8 258.8 L 1225.0 256.7 L 1227.2 254.8 L 1229.6 252.8 L 1232.1 251.0 L 1234.7 249.4 L 1237.4 247.9 L 1240.2 246.6 L 1243.2 245.5 L 1246.2 244.7 L 1249.3 244.1 L 1252.4 243.7 L 1255.6 243.6 L 1258.7 243.7 L 1261.9 244.1 L 1265.0 244.6 L 1268.1 245.4 L 1271.1 246.3 L 1274.0 247.3 L 1276.9 248.5 L 1279.6 249.7 L 1282.4 250.9 L 1285.0 252.1 L 1287.7 253.3 L 1290.3 254.4 L 1292.9 255.5 L 1295.5 256.6 L 1298.2 257.5 L 1300.8 258.4 L 1303.6 259.3 L 1306.4 260.0 L 1309.3 260.8 L 1312.3 261.6 L 1315.3 262.3 L 1318.4 263.2 L 1321.5 264.1 L 1324.6 265.1 L 1327.8 266.2 L 1330.8 267.5 L 1333.8 269.0 L 1336.7 270.7 L 1339.4 272.5 L 1341.9 274.6 L 1344.2 276.8 L 1346.3 279.3 L 1348.1 281.9 L 1349.5 284.7 L 1350.7 287.6 L 1351.6 290.6 L 1352.1 293.6 L 1352.4 296.8 L 1352.3 299.9 L 1352.0 303.1 L 1351.5 306.2 L 1350.8 309.2 L 1350.0 312.2 L 1349.0 315.1 L 1348.0 318.0 L 1347.0 320.7 L 1345.9 323.4 L 1345.0 326.0 Z"/><path class="contour" opacity="0.91" d="M 1328.4 326.0 L 1327.9 328.1 L 1327.6 330.1 L 1327.3 332.2 L 1327.1 334.2 L 1327.0 336.3 L 1327.0 338.4 L 1327.0 340.6 L 1327.1 342.8 L 1327.1 345.0 L 1327.2 347.3 L 1327.1 349.6 L 1327.0 352.0 L 1326.8 354.4 L 1326.4 356.8 L 1325.9 359.1 L 1325.2 361.4 L 1324.3 363.7 L 1323.2 365.9 L 1322.0 367.9 L 1320.5 369.9 L 1318.9 371.7 L 1317.1 373.4 L 1315.2 374.9 L 1313.1 376.3 L 1310.9 377.5 L 1308.6 378.6 L 1306.3 379.6 L 1304.0 380.4 L 1301.6 381.1 L 1299.2 381.8 L 1296.8 382.4 L 1294.5 382.9 L 1292.1 383.4 L 1289.8 383.9 L 1287.6 384.5 L 1285.4 385.0 L 1283.2 385.7 L 1281.0 386.3 L 1278.8 387.0 L 1276.6 387.8 L 1274.3 388.6 L 1272.1 389.4 L 1269.8 390.3 L 1267.4 391.1 L 1265.0 391.9 L 1262.5 392.6 L 1260.0 393.2 L 1257.4 393.7 L 1254.8 394.1 L 1252.2 394.3 L 1249.6 394.3 L 1247.0 394.1 L 1244.4 393.7 L 1241.9 393.0 L 1239.4 392.2 L 1237.1 391.1 L 1234.9 389.8 L 1232.8 388.3 L 1230.8 386.6 L 1229.0 384.8 L 1227.3 382.8 L 1225.8 380.8 L 1224.4 378.6 L 1223.2 376.5 L 1222.0 374.3 L 1221.0 372.1 L 1220.0 369.9 L 1219.0 367.8 L 1218.1 365.8 L 1217.2 363.8 L 1216.2 361.9 L 1215.2 360.1 L 1214.1 358.4 L 1212.9 356.7 L 1211.6 355.0 L 1210.2 353.4 L 1208.7 351.8 L 1207.2 350.3 L 1205.5 348.6 L 1203.9 347.0 L 1202.1 345.2 L 1200.4 343.4 L 1198.7 341.6 L 1197.1 339.6 L 1195.5 337.5 L 1194.1 335.4 L 1192.9 333.1 L 1191.8 330.8 L 1191.0 328.4 L 1190.4 326.0 L 1190.0 323.5 L 1189.9 321.1 L 1190.1 318.6 L 1190.5 316.1 L 1191.1 313.7 L 1192.0 311.4 L 1193.1 309.1 L 1194.4 306.9 L 1195.9 304.8 L 1197.5 302.9 L 1199.2 300.9 L 1200.9 299.1 L 1202.7 297.4 L 1204.6 295.7 L 1206.4 294.1 L 1208.1 292.5 L 1209.9 291.0 L 1211.6 289.4 L 1213.2 287.9 L 1214.8 286.3 L 1216.3 284.7 L 1217.8 283.1 L 1219.3 281.4 L 1220.7 279.7 L 1222.2 277.9 L 1223.7 276.2 L 1225.2 274.4 L 1226.8 272.6 L 1228.4 270.9 L 1230.2 269.2 L 1232.0 267.6 L 1234.0 266.1 L 1236.0 264.7 L 1238.2 263.4 L 1240.4 262.3 L 1242.7 261.4 L 1245.1 260.7 L 1247.6 260.2 L 1250.1 259.9 L 1252.6 259.8 L 1255.1 259.9 L 1257.7 260.2 L 1260.1 260.6 L 1262.6 261.2 L 1265.0 261.9 L 1267.3 262.7 L 1269.6 263.5 L 1271.9 264.4 L 1274.0 265.4 L 1276.2 266.3 L 1278.3 267.1 L 1280.4 268.0 L 1282.4 268.7 L 1284.5 269.4 L 1286.6 270.0 L 1288.8 270.5 L 1291.0 271.0 L 1293.2 271.4 L 1295.6 271.8 L 1298.0 272.2 L 1300.4 272.6 L 1303.0 273.0 L 1305.5 273.5 L 1308.1 274.0 L 1310.7 274.7 L 1313.3 275.5 L 1315.8 276.4 L 1318.3 277.5 L 1320.6 278.8 L 1322.9 280.3 L 1324.9 281.9 L 1326.8 283.7 L 1328.5 285.7 L 1329.9 287.8 L 1331.1 290.0 L 1332.1 292.4 L 1332.8 294.9 L 1333.3 297.4 L 1333.5 299.9 L 1333.5 302.5 L 1333.4 305.1 L 1333.1 307.6 L 1332.6 310.1 L 1332.1 312.6 L 1331.4 315.0 L 1330.8 317.3 L 1330.1 319.6 L 1329.5 321.8 L 1328.9 323.9 L 1328.4 326.0 Z"/><path class="vector" opacity=".46" d="M1020 145l46 -18"/><path class="vector" opacity=".46" d="M1112 145l46 -11"/><path class="vector" opacity=".46" d="M1204 145l46 -4"/><path class="vector" opacity=".46" d="M1296 145l46 3"/><path class="vector" opacity=".46" d="M1388 145l46 10"/><path class="vector" opacity=".46" d="M1480 145l46 17"/><path class="vector" opacity=".46" d="M1020 233l50 -18"/><path class="vector" opacity=".46" d="M1112 233l50 -11"/><path class="vector" opacity=".46" d="M1204 233l50 -4"/><path class="vector" opacity=".46" d="M1296 233l50 3"/><path class="vector" opacity=".46" d="M1388 233l50 10"/><path class="vector" opacity=".46" d="M1480 233l50 17"/><path class="vector" opacity=".46" d="M1020 321l54 -18"/><path class="vector" opacity=".46" d="M1112 321l54 -11"/><path class="vector" opacity=".46" d="M1204 321l54 -4"/><path class="vector" opacity=".46" d="M1296 321l54 3"/><path class="vector" opacity=".46" d="M1388 321l54 10"/><path class="vector" opacity=".46" d="M1480 321l54 17"/><path class="vector" opacity=".46" d="M1020 409l58 -18"/><path class="vector" opacity=".46" d="M1112 409l58 -11"/><path class="vector" opacity=".46" d="M1204 409l58 -4"/><path class="vector" opacity=".46" d="M1296 409l58 3"/><path class="vector" opacity=".46" d="M1388 409l58 10"/><path class="vector" opacity=".46" d="M1480 409l58 17"/><path class="vector" opacity=".46" d="M1020 497l62 -18"/><path class="vector" opacity=".46" d="M1112 497l62 -11"/><path class="vector" opacity=".46" d="M1204 497l62 -4"/><path class="vector" opacity=".46" d="M1296 497l62 3"/><path class="vector" opacity=".46" d="M1388 497l62 10"/><path class="vector" opacity=".46" d="M1480 497l62 17"/>
<circle cx="1265" cy="326" r="9" fill="#d0f000" stroke="#111" stroke-width="3"/>
<text x="1150" y="600" class="label">EVIDENCE FIELD</text></svg>